# xmcd CD database file
#
# Track frame offsets:
#	150
#	18864
#	34289
#	50252
#	68440
#	92965
#
# Disc length: 1410 seconds
#
# Revision: 0
# Processed by: cddbd v1.5PL3 Copyright (c) Steve Scherf et al.
# Submitted via: CDex 1.50
#
DISCID=42058006
DTITLE=BUG - FREAK e.p.
DYEAR=2002
DGENRE=Rock
TTITLE0=FEVERNOVA
TTITLE1=freak-out!
TTITLE2=DRIVE
TTITLE3=NO NAME
TTITLE4=SHAKE HEAD
TTITLE5=Set me free
EXTD=YEAR: 2002
EXTT0=
EXTT1=
EXTT2=
EXTT3=
EXTT4=
EXTT5=
PLAYORDER=
